<svg width="40" height="40" viewBox="0 0 40 40" fill="none" xmlns="http://www.w3.org/2000/svg">
<path d="M33.536 4H32V2C32 1.46957 31.7893 0.960859 31.4142 0.585786C31.0391 0.210714 30.5304 0 30 0C29.4696 0 28.9609 0.210714 28.5858 0.585786C28.2107 0.960859 28 1.46957 28 2V4H12V2C12 1.46957 11.7893 0.960859 11.4142 0.585786C11.0391 0.210714 10.5304 0 10 0C9.46957 0 8.96086 0.210714 8.58579 0.585786C8.21071 0.960859 8 1.46957 8 2V4H6.464C4.74964 4 3.1055 4.68103 1.89326 5.89326C0.681027 7.1055 0 8.74964 0 10.464L0 33.536C0 35.2504 0.681027 36.8945 1.89326 38.1067C3.1055 39.319 4.74964 40 6.464 40H33.536C35.2504 40 36.8945 39.319 38.1067 38.1067C39.319 36.8945 40 35.2504 40 33.536V10.464C40 8.74964 39.319 7.1055 38.1067 5.89326C36.8945 4.68103 35.2504 4 33.536 4ZM36 33.536C36 34.1895 35.7404 34.8162 35.2783 35.2783C34.8162 35.7404 34.1895 36 33.536 36H6.464C5.81051 36 5.18378 35.7404 4.72169 35.2783C4.2596 34.8162 4 34.1895 4 33.536V10.464C4 9.81051 4.2596 9.18378 4.72169 8.72169C5.18378 8.2596 5.81051 8 6.464 8H8V10C8 10.5304 8.21071 11.0391 8.58579 11.4142C8.96086 11.7893 9.46957 12 10 12C10.5304 12 11.0391 11.7893 11.4142 11.4142C11.7893 11.0391 12 10.5304 12 10V8H28V10C28 10.5304 28.2107 11.0391 28.5858 11.4142C28.9609 11.7893 29.4696 12 30 12C30.5304 12 31.0391 11.7893 31.4142 11.4142C31.7893 11.0391 32 10.5304 32 10V8H33.536C34.1895 8 34.8162 8.2596 35.2783 8.72169C35.7404 9.18378 36 9.81051 36 10.464V33.536Z" fill="#2E5902"/>
<path d="M20 22.3999C21.1046 22.3999 22 21.5045 22 20.3999C22 19.2953 21.1046 18.3999 20 18.3999C18.8954 18.3999 18 19.2953 18 20.3999C18 21.5045 18.8954 22.3999 20 22.3999Z" fill="#2E5902"/>
<path d="M20 29.6001C21.1046 29.6001 22 28.7047 22 27.6001C22 26.4955 21.1046 25.6001 20 25.6001C18.8954 25.6001 18 26.4955 18 27.6001C18 28.7047 18.8954 29.6001 20 29.6001Z" fill="#2E5902"/>
<path d="M12.7998 29.6001C13.9044 29.6001 14.7998 28.7047 14.7998 27.6001C14.7998 26.4955 13.9044 25.6001 12.7998 25.6001C11.6952 25.6001 10.7998 26.4955 10.7998 27.6001C10.7998 28.7047 11.6952 29.6001 12.7998 29.6001Z" fill="#2E5902"/>
<path d="M27.2002 22.3999C28.3048 22.3999 29.2002 21.5045 29.2002 20.3999C29.2002 19.2953 28.3048 18.3999 27.2002 18.3999C26.0956 18.3999 25.2002 19.2953 25.2002 20.3999C25.2002 21.5045 26.0956 22.3999 27.2002 22.3999Z" fill="#7BBD3B"/>
<path d="M27.2002 29.5999C28.3048 29.5999 29.2002 28.7044 29.2002 27.5999C29.2002 26.4953 28.3048 25.5999 27.2002 25.5999C26.0956 25.5999 25.2002 26.4953 25.2002 27.5999C25.2002 28.7044 26.0956 29.5999 27.2002 29.5999Z" fill="#7BBD3B"/>
</svg>
