<svg width="7" height="17" viewBox="0 0 7 17" fill="none" xmlns="http://www.w3.org/2000/svg">
<path d="M0.0532227 15.9734L0.380038 12.0551C0.381802 11.9173 0.442082 11.7859 0.547655 11.6895C0.653228 11.5932 0.79546 11.54 0.943102 11.5414L1.45433 11.5469C1.60207 11.5484 1.74309 11.6047 1.84638 11.7033C1.94967 11.8018 2.00679 11.9347 2.00515 12.0725L2.23611 15.9965V15.9937C2.22962 16.2618 2.1101 16.5166 1.90347 16.703C1.69684 16.8894 1.41978 16.9922 1.13242 16.9891C0.845054 16.9861 0.570565 16.8774 0.368526 16.6867C0.166487 16.496 0.053187 16.2387 0.0532227 15.9705V15.9734Z" fill="#2E5902"/>
<path d="M1.54486 10.3684H0.744141V11.1267H1.54486V10.3684Z" fill="#2E5902"/>
<path d="M0.744437 10.3216C3.23323 9.67429 5.04975 7.66188 5.04975 5.27301C5.04975 2.65198 2.86241 0.483822 0 0.0751478C0.322519 0.0269853 0.648507 0.0018522 0.975124 0C4.30253 0 7 2.36081 7 5.27301C7 8.1852 4.30253 10.546 0.975124 10.546C0.898229 10.546 0.821695 10.5444 0.745542 10.5413L0.744437 10.3216Z" fill="#2E5902"/>
</svg>
