<?xml version="1.0" encoding="UTF-8" standalone="no"?> <svg xmlns="http://www.w3.org/2000/svg" width="74.733" height="56.704" viewBox="0 0 74.733 56.704">
  <g id="Group_247" data-name="Group 247" transform="translate(-652.304 -477.885)">
    <g id="Group_47" data-name="Group 47">
      <g id="Group_46" data-name="Group 46">
        <g id="Group_45" data-name="Group 45">
          <g id="Group_44" data-name="Group 44">
            <g id="Group_43" data-name="Group 43">
              <g id="Group_42" data-name="Group 42">
                <path id="Path_8" data-name="Path 8" d="M708.1,534.589a20.511,20.511,0,0,1-9.416-2.041,21.734,21.734,0,0,0-18.035,0,22.736,22.736,0,0,1-18.83,0,19.4,19.4,0,0,0-9.017-1.959.5.5,0,0,1,0-1,20.5,20.5,0,0,1,9.415,2.041,21.732,21.732,0,0,0,18.034,0,22.738,22.738,0,0,1,18.831,0,21.736,21.736,0,0,0,18.036,0,20.512,20.512,0,0,1,9.417-2.041.5.5,0,0,1,0,1,19.408,19.408,0,0,0-9.019,1.959A20.5,20.5,0,0,1,708.1,534.589Z"/>
              </g>
            </g>
          </g>
        </g>
      </g>
    </g>
    <g id="Group_246" data-name="Group 246">
      <g id="Group_113" data-name="Group 113">
        <g id="Group_53" data-name="Group 53">
          <g id="Group_52" data-name="Group 52">
            <g id="Group_51" data-name="Group 51">
              <g id="Group_50" data-name="Group 50">
                <g id="Group_49" data-name="Group 49">
                  <g id="Group_48" data-name="Group 48">
                    <path id="Path_9" data-name="Path 9" d="M708.022,493.143c-6.149-8.3-.359-11.258-.359-11.258a34.717,34.717,0,0,1,2.148,4.252C711.6,490.151,708.022,493.143,708.022,493.143Z"/>
                  </g>
                </g>
              </g>
            </g>
          </g>
        </g>
        <g id="Group_59" data-name="Group 59">
          <g id="Group_58" data-name="Group 58">
            <g id="Group_57" data-name="Group 57">
              <g id="Group_56" data-name="Group 56">
                <g id="Group_55" data-name="Group 55">
                  <g id="Group_54" data-name="Group 54">
                    <path id="Path_10" data-name="Path 10" d="M709.465,505.443a12.15,12.15,0,0,0,3.929-1.493c3.063-1.948,2-7.858,2-7.858s-1.708,1.149-3.635,2.239C708.261,500.307,709.465,505.443,709.465,505.443Z"/>
                  </g>
                </g>
              </g>
            </g>
          </g>
        </g>
        <g id="Group_65" data-name="Group 65">
          <g id="Group_64" data-name="Group 64">
            <g id="Group_63" data-name="Group 63">
              <g id="Group_62" data-name="Group 62">
                <g id="Group_61" data-name="Group 61">
                  <g id="Group_60" data-name="Group 60">
                    <path id="Path_11" data-name="Path 11" d="M709.092,498.184a12.111,12.111,0,0,0,3.928-1.493c3.065-1.948,2-7.858,2-7.858s-1.708,1.15-3.635,2.239C707.888,493.047,709.092,498.184,709.092,498.184Z"/>
                  </g>
                </g>
              </g>
            </g>
          </g>
        </g>
        <g id="Group_71" data-name="Group 71">
          <g id="Group_70" data-name="Group 70">
            <g id="Group_69" data-name="Group 69">
              <g id="Group_68" data-name="Group 68">
                <g id="Group_67" data-name="Group 67">
                  <g id="Group_66" data-name="Group 66">
                    <path id="Path_12" data-name="Path 12" d="M707.935,508.35a12.176,12.176,0,0,1-3.928-1.494c-3.064-1.948-2-7.858-2-7.858s1.707,1.15,3.634,2.238C709.139,503.212,707.935,508.35,707.935,508.35Z"/>
                  </g>
                </g>
              </g>
            </g>
          </g>
        </g>
        <g id="Group_77" data-name="Group 77">
          <g id="Group_76" data-name="Group 76">
            <g id="Group_75" data-name="Group 75">
              <g id="Group_74" data-name="Group 74">
                <g id="Group_73" data-name="Group 73">
                  <g id="Group_72" data-name="Group 72">
                    <path id="Path_13" data-name="Path 13" d="M707.935,500.509a12.13,12.13,0,0,1-3.928-1.494c-3.064-1.947-2-7.858-2-7.858s1.707,1.151,3.634,2.239C709.139,495.372,707.935,500.509,707.935,500.509Z"/>
                  </g>
                </g>
              </g>
            </g>
          </g>
        </g>
        <g id="Group_83" data-name="Group 83">
          <g id="Group_82" data-name="Group 82">
            <g id="Group_81" data-name="Group 81">
              <g id="Group_80" data-name="Group 80">
                <g id="Group_79" data-name="Group 79">
                  <g id="Group_78" data-name="Group 78">
                    <path id="Path_14" data-name="Path 14" d="M709.465,520.552a12.128,12.128,0,0,0,3.929-1.493c3.063-1.948,2-7.858,2-7.858s-1.708,1.15-3.635,2.239C708.261,515.415,709.465,520.552,709.465,520.552Z"/>
                  </g>
                </g>
              </g>
            </g>
          </g>
        </g>
        <g id="Group_89" data-name="Group 89">
          <g id="Group_88" data-name="Group 88">
            <g id="Group_87" data-name="Group 87">
              <g id="Group_86" data-name="Group 86">
                <g id="Group_85" data-name="Group 85">
                  <g id="Group_84" data-name="Group 84">
                    <path id="Path_15" data-name="Path 15" d="M709.092,513.292a12.135,12.135,0,0,0,3.928-1.492c3.065-1.949,2-7.859,2-7.859s-1.708,1.15-3.635,2.239C707.888,508.155,709.092,513.292,709.092,513.292Z"/>
                  </g>
                </g>
              </g>
            </g>
          </g>
        </g>
        <g id="Group_95" data-name="Group 95">
          <g id="Group_94" data-name="Group 94">
            <g id="Group_93" data-name="Group 93">
              <g id="Group_92" data-name="Group 92">
                <g id="Group_91" data-name="Group 91">
                  <g id="Group_90" data-name="Group 90">
                    <path id="Path_16" data-name="Path 16" d="M707.935,523.573a12.153,12.153,0,0,1-3.928-1.493c-3.064-1.948-2-7.858-2-7.858s1.707,1.15,3.634,2.238C709.139,518.437,707.935,523.573,707.935,523.573Z"/>
                  </g>
                </g>
              </g>
            </g>
          </g>
        </g>
        <g id="Group_101" data-name="Group 101">
          <g id="Group_100" data-name="Group 100">
            <g id="Group_99" data-name="Group 99">
              <g id="Group_98" data-name="Group 98">
                <g id="Group_97" data-name="Group 97">
                  <g id="Group_96" data-name="Group 96">
                    <path id="Path_17" data-name="Path 17" d="M707.935,515.733a12.153,12.153,0,0,1-3.928-1.493c-3.064-1.948-2-7.859-2-7.859s1.707,1.152,3.634,2.239C709.139,510.6,707.935,515.733,707.935,515.733Z"/>
                  </g>
                </g>
              </g>
            </g>
          </g>
        </g>
        <g id="Group_112" data-name="Group 112">
          <g id="Group_106" data-name="Group 106">
            <g id="Group_105" data-name="Group 105">
              <g id="Group_104" data-name="Group 104">
                <g id="Group_103" data-name="Group 103">
                  <g id="Group_102" data-name="Group 102">
                    <line id="Line_1" data-name="Line 1" y2="15.622" transform="translate(709.722 518.245)"/>
                  </g>
                </g>
              </g>
            </g>
          </g>
          <g id="Group_111" data-name="Group 111">
            <g id="Group_110" data-name="Group 110">
              <g id="Group_109" data-name="Group 109">
                <g id="Group_108" data-name="Group 108">
                  <g id="Group_107" data-name="Group 107">
                    <path id="Path_18" data-name="Path 18" d="M709.722,534.332a.465.465,0,0,1-.465-.465V518.245a.465.465,0,0,1,.93,0v15.622A.466.466,0,0,1,709.722,534.332Z"/>
                  </g>
                </g>
              </g>
            </g>
          </g>
        </g>
      </g>
      <g id="Group_179" data-name="Group 179">
        <g id="Group_119" data-name="Group 119">
          <g id="Group_118" data-name="Group 118">
            <g id="Group_117" data-name="Group 117">
              <g id="Group_116" data-name="Group 116">
                <g id="Group_115" data-name="Group 115">
                  <g id="Group_114" data-name="Group 114">
                    <path id="Path_19" data-name="Path 19" d="M666.022,493.143c-6.149-8.3-.359-11.258-.359-11.258a34.717,34.717,0,0,1,2.148,4.252C669.6,490.151,666.022,493.143,666.022,493.143Z"/>
                  </g>
                </g>
              </g>
            </g>
          </g>
        </g>
        <g id="Group_125" data-name="Group 125">
          <g id="Group_124" data-name="Group 124">
            <g id="Group_123" data-name="Group 123">
              <g id="Group_122" data-name="Group 122">
                <g id="Group_121" data-name="Group 121">
                  <g id="Group_120" data-name="Group 120">
                    <path id="Path_20" data-name="Path 20" d="M667.465,505.443a12.15,12.15,0,0,0,3.929-1.493c3.063-1.948,2-7.858,2-7.858s-1.708,1.149-3.635,2.239C666.261,500.307,667.465,505.443,667.465,505.443Z"/>
                  </g>
                </g>
              </g>
            </g>
          </g>
        </g>
        <g id="Group_131" data-name="Group 131">
          <g id="Group_130" data-name="Group 130">
            <g id="Group_129" data-name="Group 129">
              <g id="Group_128" data-name="Group 128">
                <g id="Group_127" data-name="Group 127">
                  <g id="Group_126" data-name="Group 126">
                    <path id="Path_21" data-name="Path 21" d="M667.092,498.184a12.111,12.111,0,0,0,3.928-1.493c3.065-1.948,2-7.858,2-7.858s-1.708,1.15-3.635,2.239C665.888,493.047,667.092,498.184,667.092,498.184Z"/>
                  </g>
                </g>
              </g>
            </g>
          </g>
        </g>
        <g id="Group_137" data-name="Group 137">
          <g id="Group_136" data-name="Group 136">
            <g id="Group_135" data-name="Group 135">
              <g id="Group_134" data-name="Group 134">
                <g id="Group_133" data-name="Group 133">
                  <g id="Group_132" data-name="Group 132">
                    <path id="Path_22" data-name="Path 22" d="M665.935,508.35a12.176,12.176,0,0,1-3.928-1.494c-3.064-1.948-2-7.858-2-7.858s1.707,1.15,3.634,2.238C667.139,503.212,665.935,508.35,665.935,508.35Z"/>
                  </g>
                </g>
              </g>
            </g>
          </g>
        </g>
        <g id="Group_143" data-name="Group 143">
          <g id="Group_142" data-name="Group 142">
            <g id="Group_141" data-name="Group 141">
              <g id="Group_140" data-name="Group 140">
                <g id="Group_139" data-name="Group 139">
                  <g id="Group_138" data-name="Group 138">
                    <path id="Path_23" data-name="Path 23" d="M665.935,500.509a12.13,12.13,0,0,1-3.928-1.494c-3.064-1.947-2-7.858-2-7.858s1.707,1.151,3.634,2.239C667.139,495.372,665.935,500.509,665.935,500.509Z"/>
                  </g>
                </g>
              </g>
            </g>
          </g>
        </g>
        <g id="Group_149" data-name="Group 149">
          <g id="Group_148" data-name="Group 148">
            <g id="Group_147" data-name="Group 147">
              <g id="Group_146" data-name="Group 146">
                <g id="Group_145" data-name="Group 145">
                  <g id="Group_144" data-name="Group 144">
                    <path id="Path_24" data-name="Path 24" d="M667.465,520.552a12.128,12.128,0,0,0,3.929-1.493c3.063-1.948,2-7.858,2-7.858s-1.708,1.15-3.635,2.239C666.261,515.415,667.465,520.552,667.465,520.552Z"/>
                  </g>
                </g>
              </g>
            </g>
          </g>
        </g>
        <g id="Group_155" data-name="Group 155">
          <g id="Group_154" data-name="Group 154">
            <g id="Group_153" data-name="Group 153">
              <g id="Group_152" data-name="Group 152">
                <g id="Group_151" data-name="Group 151">
                  <g id="Group_150" data-name="Group 150">
                    <path id="Path_25" data-name="Path 25" d="M667.092,513.292a12.135,12.135,0,0,0,3.928-1.492c3.065-1.949,2-7.859,2-7.859s-1.708,1.15-3.635,2.239C665.888,508.155,667.092,513.292,667.092,513.292Z"/>
                  </g>
                </g>
              </g>
            </g>
          </g>
        </g>
        <g id="Group_161" data-name="Group 161">
          <g id="Group_160" data-name="Group 160">
            <g id="Group_159" data-name="Group 159">
              <g id="Group_158" data-name="Group 158">
                <g id="Group_157" data-name="Group 157">
                  <g id="Group_156" data-name="Group 156">
                    <path id="Path_26" data-name="Path 26" d="M665.935,523.573a12.153,12.153,0,0,1-3.928-1.493c-3.064-1.948-2-7.858-2-7.858s1.707,1.15,3.634,2.238C667.139,518.437,665.935,523.573,665.935,523.573Z"/>
                  </g>
                </g>
              </g>
            </g>
          </g>
        </g>
        <g id="Group_167" data-name="Group 167">
          <g id="Group_166" data-name="Group 166">
            <g id="Group_165" data-name="Group 165">
              <g id="Group_164" data-name="Group 164">
                <g id="Group_163" data-name="Group 163">
                  <g id="Group_162" data-name="Group 162">
                    <path id="Path_27" data-name="Path 27" d="M665.935,515.733a12.153,12.153,0,0,1-3.928-1.493c-3.064-1.948-2-7.859-2-7.859s1.707,1.152,3.634,2.239C667.139,510.6,665.935,515.733,665.935,515.733Z"/>
                  </g>
                </g>
              </g>
            </g>
          </g>
        </g>
        <g id="Group_178" data-name="Group 178">
          <g id="Group_172" data-name="Group 172">
            <g id="Group_171" data-name="Group 171">
              <g id="Group_170" data-name="Group 170">
                <g id="Group_169" data-name="Group 169">
                  <g id="Group_168" data-name="Group 168">
                    <line id="Line_2" data-name="Line 2" y2="15.622" transform="translate(667.722 518.245)"/>
                  </g>
                </g>
              </g>
            </g>
          </g>
          <g id="Group_177" data-name="Group 177">
            <g id="Group_176" data-name="Group 176">
              <g id="Group_175" data-name="Group 175">
                <g id="Group_174" data-name="Group 174">
                  <g id="Group_173" data-name="Group 173">
                    <path id="Path_28" data-name="Path 28" d="M667.722,534.332a.465.465,0,0,1-.465-.465V518.245a.465.465,0,0,1,.93,0v15.622A.466.466,0,0,1,667.722,534.332Z"/>
                  </g>
                </g>
              </g>
            </g>
          </g>
        </g>
      </g>
      <g id="Group_245" data-name="Group 245">
        <g id="Group_185" data-name="Group 185">
          <g id="Group_184" data-name="Group 184">
            <g id="Group_183" data-name="Group 183">
              <g id="Group_182" data-name="Group 182">
                <g id="Group_181" data-name="Group 181">
                  <g id="Group_180" data-name="Group 180">
                    <path id="Path_29" data-name="Path 29" d="M687.022,489.143c-6.149-8.3-.359-11.258-.359-11.258a34.717,34.717,0,0,1,2.148,4.252C690.6,486.151,687.022,489.143,687.022,489.143Z"/>
                  </g>
                </g>
              </g>
            </g>
          </g>
        </g>
        <g id="Group_191" data-name="Group 191">
          <g id="Group_190" data-name="Group 190">
            <g id="Group_189" data-name="Group 189">
              <g id="Group_188" data-name="Group 188">
                <g id="Group_187" data-name="Group 187">
                  <g id="Group_186" data-name="Group 186">
                    <path id="Path_30" data-name="Path 30" d="M688.465,501.443a12.15,12.15,0,0,0,3.929-1.493c3.063-1.948,2-7.858,2-7.858s-1.708,1.149-3.635,2.239C687.261,496.307,688.465,501.443,688.465,501.443Z"/>
                  </g>
                </g>
              </g>
            </g>
          </g>
        </g>
        <g id="Group_197" data-name="Group 197">
          <g id="Group_196" data-name="Group 196">
            <g id="Group_195" data-name="Group 195">
              <g id="Group_194" data-name="Group 194">
                <g id="Group_193" data-name="Group 193">
                  <g id="Group_192" data-name="Group 192">
                    <path id="Path_31" data-name="Path 31" d="M688.092,494.184a12.111,12.111,0,0,0,3.928-1.493c3.065-1.948,2-7.858,2-7.858s-1.708,1.15-3.635,2.239C686.888,489.047,688.092,494.184,688.092,494.184Z"/>
                  </g>
                </g>
              </g>
            </g>
          </g>
        </g>
        <g id="Group_203" data-name="Group 203">
          <g id="Group_202" data-name="Group 202">
            <g id="Group_201" data-name="Group 201">
              <g id="Group_200" data-name="Group 200">
                <g id="Group_199" data-name="Group 199">
                  <g id="Group_198" data-name="Group 198">
                    <path id="Path_32" data-name="Path 32" d="M686.935,504.35a12.176,12.176,0,0,1-3.928-1.494c-3.064-1.948-2-7.858-2-7.858s1.707,1.15,3.634,2.238C688.139,499.212,686.935,504.35,686.935,504.35Z"/>
                  </g>
                </g>
              </g>
            </g>
          </g>
        </g>
        <g id="Group_209" data-name="Group 209">
          <g id="Group_208" data-name="Group 208">
            <g id="Group_207" data-name="Group 207">
              <g id="Group_206" data-name="Group 206">
                <g id="Group_205" data-name="Group 205">
                  <g id="Group_204" data-name="Group 204">
                    <path id="Path_33" data-name="Path 33" d="M686.935,496.509a12.13,12.13,0,0,1-3.928-1.494c-3.064-1.947-2-7.858-2-7.858s1.707,1.151,3.634,2.239C688.139,491.372,686.935,496.509,686.935,496.509Z"/>
                  </g>
                </g>
              </g>
            </g>
          </g>
        </g>
        <g id="Group_215" data-name="Group 215">
          <g id="Group_214" data-name="Group 214">
            <g id="Group_213" data-name="Group 213">
              <g id="Group_212" data-name="Group 212">
                <g id="Group_211" data-name="Group 211">
                  <g id="Group_210" data-name="Group 210">
                    <path id="Path_34" data-name="Path 34" d="M688.465,516.552a12.128,12.128,0,0,0,3.929-1.493c3.063-1.948,2-7.858,2-7.858s-1.708,1.15-3.635,2.239C687.261,511.415,688.465,516.552,688.465,516.552Z"/>
                  </g>
                </g>
              </g>
            </g>
          </g>
        </g>
        <g id="Group_221" data-name="Group 221">
          <g id="Group_220" data-name="Group 220">
            <g id="Group_219" data-name="Group 219">
              <g id="Group_218" data-name="Group 218">
                <g id="Group_217" data-name="Group 217">
                  <g id="Group_216" data-name="Group 216">
                    <path id="Path_35" data-name="Path 35" d="M688.092,509.292a12.135,12.135,0,0,0,3.928-1.492c3.065-1.949,2-7.859,2-7.859s-1.708,1.15-3.635,2.239C686.888,504.155,688.092,509.292,688.092,509.292Z"/>
                  </g>
                </g>
              </g>
            </g>
          </g>
        </g>
        <g id="Group_227" data-name="Group 227">
          <g id="Group_226" data-name="Group 226">
            <g id="Group_225" data-name="Group 225">
              <g id="Group_224" data-name="Group 224">
                <g id="Group_223" data-name="Group 223">
                  <g id="Group_222" data-name="Group 222">
                    <path id="Path_36" data-name="Path 36" d="M686.935,519.573a12.153,12.153,0,0,1-3.928-1.493c-3.064-1.948-2-7.858-2-7.858s1.707,1.15,3.634,2.238C688.139,514.437,686.935,519.573,686.935,519.573Z"/>
                  </g>
                </g>
              </g>
            </g>
          </g>
        </g>
        <g id="Group_233" data-name="Group 233">
          <g id="Group_232" data-name="Group 232">
            <g id="Group_231" data-name="Group 231">
              <g id="Group_230" data-name="Group 230">
                <g id="Group_229" data-name="Group 229">
                  <g id="Group_228" data-name="Group 228">
                    <path id="Path_37" data-name="Path 37" d="M686.935,511.733a12.153,12.153,0,0,1-3.928-1.493c-3.064-1.948-2-7.859-2-7.859s1.707,1.152,3.634,2.239C688.139,506.6,686.935,511.733,686.935,511.733Z"/>
                  </g>
                </g>
              </g>
            </g>
          </g>
        </g>
        <g id="Group_244" data-name="Group 244">
          <g id="Group_238" data-name="Group 238">
            <g id="Group_237" data-name="Group 237">
              <g id="Group_236" data-name="Group 236">
                <g id="Group_235" data-name="Group 235">
                  <g id="Group_234" data-name="Group 234">
                    <line id="Line_3" data-name="Line 3" y2="15.622" transform="translate(688.722 514.245)"/>
                  </g>
                </g>
              </g>
            </g>
          </g>
          <g id="Group_243" data-name="Group 243">
            <g id="Group_242" data-name="Group 242">
              <g id="Group_241" data-name="Group 241">
                <g id="Group_240" data-name="Group 240">
                  <g id="Group_239" data-name="Group 239">
                    <path id="Path_38" data-name="Path 38" d="M688.722,530.332a.465.465,0,0,1-.465-.465V514.245a.465.465,0,0,1,.93,0v15.622A.466.466,0,0,1,688.722,530.332Z"/>
                  </g>
                </g>
              </g>
            </g>
          </g>
        </g>
      </g>
    </g>
  </g>
</svg>
