<svg width="20" height="18" viewBox="0 0 20 18" fill="none" xmlns="http://www.w3.org/2000/svg">
<g clip-path="url(#clip0)">
<path d="M7.89265 6.58986C7.54155 5.72058 6.7067 5.03815 5.41312 4.56263C4.77856 4.3271 4.10926 4.20589 3.43463 4.20435C2.24447 4.2035 1.08146 4.57015 0.0962062 5.25677C0.0634722 5.2818 0.0373832 5.31488 0.0203298 5.35299C0.00327645 5.3911 -0.00418047 5.43301 -0.00137688 5.47487C0.00142671 5.51672 0.0144072 5.55718 0.0363811 5.59253C0.0583551 5.62787 0.0886093 5.65696 0.124372 5.67715C1.02455 6.20079 1.86766 6.82199 2.6393 7.53015C2.70925 7.59835 4.3889 9.2052 6.11761 9.2052C6.75711 9.21252 7.37451 8.96496 7.84039 8.51437C7.86362 8.49221 7.88259 8.46572 7.89628 8.43634C8.01364 8.14341 8.07372 7.82956 8.07309 7.51273C8.07247 7.19591 8.01116 6.88231 7.89265 6.58986Z" fill="#2E5902"/>
<path d="M9.30065 10.1651C9.25898 10.1649 9.21805 10.1538 9.18167 10.1329C9.14529 10.112 9.11465 10.0819 9.09262 10.0455C7.97891 8.17055 3.63581 6.31893 3.59221 6.30118C3.56269 6.28873 3.53582 6.27042 3.51317 6.2473C3.49053 6.22417 3.47254 6.19669 3.46022 6.16642C3.43535 6.10527 3.43513 6.03647 3.45959 5.97514C3.48404 5.91382 3.53117 5.86501 3.59063 5.83944C3.65009 5.81386 3.71699 5.8136 3.77662 5.83875C3.96103 5.91722 8.31139 7.77117 9.50777 9.78394C9.54119 9.8406 9.55144 9.90857 9.53629 9.97299C9.52115 10.0374 9.48183 10.093 9.42693 10.1277C9.38904 10.152 9.3453 10.165 9.30065 10.1651Z" fill="#2E5902"/>
<path d="M19.8837 0.956134C18.7568 0.322699 17.4921 -0.00629001 16.2078 -3.45015e-05C15.1042 0.00038679 14.0145 0.25261 13.0171 0.73846C11.4246 1.50685 10.4444 2.47705 10.102 3.62193C9.87089 4.39297 9.94586 5.2267 10.3105 5.94111C10.3266 5.96867 10.3477 5.99277 10.3727 6.0121C10.9222 6.45063 11.5984 6.68788 12.294 6.68616C14.6241 6.68616 16.7711 4.2002 16.8619 4.09463C17.775 3.07916 18.7916 2.16758 19.8942 1.3756C19.928 1.35216 19.9555 1.32034 19.9741 1.28309C19.9928 1.24583 20.002 1.20436 20.001 1.16246C20 1.12057 19.9887 1.0796 19.9682 1.04337C19.9477 1.00715 19.9186 0.976828 19.8837 0.955193V0.956134Z" fill="#2E5902"/>
<path d="M9.30065 15.3338C9.23636 15.3336 9.17473 15.3073 9.12927 15.2605C9.08381 15.2138 9.05823 15.1504 9.05811 15.0843V8.98715C9.05811 4.32401 15.0027 2.4257 15.2557 2.34629C15.2863 2.33678 15.3184 2.33355 15.3502 2.33679C15.3819 2.34004 15.4128 2.34968 15.441 2.36519C15.4691 2.3807 15.494 2.40177 15.5143 2.42717C15.5345 2.45258 15.5497 2.48183 15.5589 2.51327C15.5682 2.54471 15.5713 2.57772 15.5681 2.6104C15.565 2.64309 15.5556 2.67479 15.5405 2.70375C15.5254 2.7327 15.505 2.75831 15.4803 2.77913C15.4556 2.79994 15.4271 2.81555 15.3965 2.82506C15.338 2.84281 9.54411 4.69584 9.54411 8.98669V15.0838C9.54387 15.1501 9.51812 15.2136 9.4725 15.2604C9.42688 15.3073 9.3651 15.3336 9.30065 15.3338Z" fill="#2E5902"/>
<path d="M18.9509 17.9999C18.3277 17.047 16.9202 15.8045 13.8947 16.2861C13.8947 16.2861 12.6484 12.5852 8.38475 13.2634C7.56993 13.3531 6.81108 13.7322 6.23897 14.3356C5.66686 14.939 5.31737 15.7287 5.25075 16.5687C5.25075 16.5687 2.90794 16.7452 2.02588 17.9999H18.9509Z" fill="#2E5902"/>
</g>
<defs>
<clipPath id="clip0">
<rect width="20" height="18" fill="white"/>
</clipPath>
</defs>
</svg>
