<svg width="20" height="16" viewBox="0 0 20 16" fill="none" xmlns="http://www.w3.org/2000/svg">
<path d="M6.10498 7.76694C6.47034 7.92327 6.86425 8.00392 7.2624 8.00392C7.66054 8.00392 8.05445 7.92327 8.41981 7.76694C10.3103 6.93204 12.5248 7.99568 12.5248 10.0543C12.5248 12.5514 10.1637 14.0001 7.25468 14.0001C4.3457 14.0001 2 12.5476 2 10.0505C2 7.99568 4.21453 6.93204 6.10498 7.76694Z" stroke="#2E5902" stroke-width="2" stroke-linecap="round" stroke-linejoin="round"/>
<path d="M9.29568 9.25366C9.29568 9.25366 8.81728 9.89795 7.01556 9.89795C5.21385 9.89795 4.74316 9.25366 4.74316 9.25366" stroke="#2E5902" stroke-width="2" stroke-linecap="round" stroke-linejoin="round"/>
<path d="M11.5063 1.28586C11.8717 1.44219 12.2656 1.52284 12.6638 1.52284C13.0619 1.52284 13.4558 1.44219 13.8212 1.28586C15.7116 0.450962 17.9262 1.5146 17.9262 3.57327C17.9262 6.07035 15.565 7.51903 12.656 7.51903C9.74707 7.51903 7.40137 6.06653 7.40137 3.56945C7.40137 1.5146 9.61589 0.450962 11.5063 1.28586Z" stroke="#2E5902" stroke-width="2" stroke-linecap="round" stroke-linejoin="round"/>
<path d="M14.697 2.77271C14.697 2.77271 14.2186 3.41699 12.4169 3.41699C10.6152 3.41699 10.1445 2.77271 10.1445 2.77271" stroke="#2E5902" stroke-width="2" stroke-linecap="round" stroke-linejoin="round"/>
</svg>
