<svg width="44" height="44" viewBox="0 0 44 44" fill="none" xmlns="http://www.w3.org/2000/svg">
<path d="M27.7552 15.6744C27.2518 15.1711 26.4356 15.1711 25.9322 15.6744C25.4289 16.1778 25.4289 16.994 25.9322 17.4974L27.7552 19.3204C28.0069 19.5721 28.3368 19.698 28.6666 19.698C28.9965 19.698 29.3265 19.5721 29.5781 19.3204L33.2241 15.6744C33.7275 15.1711 33.7275 14.3549 33.2241 13.8514C32.7207 13.3479 31.9046 13.3481 31.4011 13.8514L28.6667 16.5859L27.7552 15.6744Z" fill="#2E5902"/>
<path d="M31.4012 20.3828L28.6667 23.1172L27.7552 22.2057C27.2518 21.7024 26.4356 21.7024 25.9322 22.2057C25.4289 22.7091 25.4289 23.5253 25.9322 24.0287L27.7552 25.8517C28.0069 26.1034 28.3368 26.2293 28.6666 26.2293C28.9965 26.2293 29.3265 26.1034 29.5781 25.8517L33.2241 22.2057C33.7275 21.7024 33.7275 20.8862 33.2241 20.3828C32.7208 19.8792 31.9047 19.8793 31.4012 20.3828Z" fill="#2E5902"/>
<path d="M22 15.2969H11.6875C10.9756 15.2969 10.3984 15.874 10.3984 16.5859C10.3984 17.2978 10.9756 17.875 11.6875 17.875H22C22.7119 17.875 23.2891 17.2978 23.2891 16.5859C23.2891 15.874 22.7119 15.2969 22 15.2969Z" fill="#2E5902"/>
<path d="M22 21.8281H11.6875C10.9756 21.8281 10.3984 22.4053 10.3984 23.1172C10.3984 23.8291 10.9756 24.4062 11.6875 24.4062H22C22.7119 24.4062 23.2891 23.8291 23.2891 23.1172C23.2891 22.4053 22.7119 21.8281 22 21.8281Z" fill="#2E5902"/>
<path d="M22 28.3594H11.6875C10.9756 28.3594 10.3984 28.9365 10.3984 29.6484C10.3984 30.3603 10.9756 30.9375 11.6875 30.9375H22C22.7119 30.9375 23.2891 30.3603 23.2891 29.6484C23.2891 28.9365 22.7119 28.3594 22 28.3594Z" fill="#2E5902"/>
<path d="M22 34.8906H11.6875C10.9756 34.8906 10.3984 35.4678 10.3984 36.1797C10.3984 36.8916 10.9756 37.4688 11.6875 37.4688H22C22.7119 37.4688 23.2891 36.8916 23.2891 36.1797C23.2891 35.4678 22.7119 34.8906 22 34.8906Z" fill="#2E5902"/>
<path d="M37.4688 5.15625H30.1379C29.652 4.12569 28.6102 3.4375 27.419 3.4375H26.2292L26.6881 1.6017C26.7844 1.2167 26.6979 0.808586 26.4536 0.495773C26.2092 0.182875 25.8344 0 25.4375 0H18.5625C18.1656 0 17.7908 0.182875 17.5465 0.495773C17.3022 0.808672 17.2157 1.2167 17.3119 1.6017L17.7709 3.4375H16.581C15.3899 3.4375 14.348 4.12569 13.8622 5.15625H6.53125C5.81934 5.15625 5.24219 5.73341 5.24219 6.44531V42.7109C5.24219 43.4228 5.81934 44 6.53125 44H37.4688C38.1807 44 38.7578 43.4228 38.7578 42.7109V6.44531C38.7578 5.73341 38.1807 5.15625 37.4688 5.15625ZM16.581 6.01562H19.4219C19.8188 6.01562 20.1936 5.83275 20.4379 5.51985C20.6821 5.20695 20.7687 4.79892 20.6724 4.41392L20.2134 2.57812H23.7865L23.3275 4.41392C23.2312 4.79892 23.3178 5.20704 23.562 5.51985C23.8064 5.83275 24.1812 6.01562 24.5781 6.01562H27.419C27.6299 6.01562 27.8082 6.16662 27.8429 6.37467L28.2127 8.59375H15.7873L16.1572 6.37467C16.1918 6.16662 16.3701 6.01562 16.581 6.01562ZM36.1797 41.4219H7.82031V7.73438H13.3169L12.9941 9.67089C12.9318 10.0446 13.0371 10.4269 13.2821 10.716C13.5271 11.0051 13.8867 11.1719 14.2656 11.1719H29.7344C30.1133 11.1719 30.473 11.0052 30.7179 10.716C30.9629 10.4268 31.0682 10.0445 31.0059 9.67089L30.6831 7.73438H36.1797V41.4219Z" fill="#2E5902"/>
</svg>
