<svg width="44" height="44" viewBox="0 0 44 44" fill="none" xmlns="http://www.w3.org/2000/svg">
<path d="M22 22C23.9036 22 25.7645 21.4355 27.3474 20.3779C28.9302 19.3203 30.1638 17.8171 30.8923 16.0583C31.6208 14.2996 31.8114 12.3643 31.4401 10.4973C31.0687 8.63019 30.152 6.91518 28.8059 5.5691C27.4598 4.22302 25.7448 3.30633 23.8777 2.93495C22.0107 2.56356 20.0754 2.75417 18.3167 3.48266C16.5579 4.21116 15.0547 5.44482 13.9971 7.02764C12.9395 8.61046 12.375 10.4714 12.375 12.375C12.375 14.9277 13.3891 17.3759 15.1941 19.1809C16.9991 20.9859 19.4473 22 22 22ZM22 5.5C23.3597 5.5 24.689 5.90322 25.8195 6.65865C26.9501 7.41409 27.8313 8.48781 28.3517 9.74406C28.872 11.0003 29.0082 12.3826 28.7429 13.7163C28.4776 15.0499 27.8228 16.2749 26.8614 17.2364C25.8999 18.1979 24.6749 18.8526 23.3412 19.1179C22.0076 19.3832 20.6253 19.247 19.3691 18.7267C18.1128 18.2063 17.0391 17.3251 16.2836 16.1946C15.5282 15.064 15.125 13.7348 15.125 12.375C15.125 10.5516 15.8493 8.80296 17.1386 7.51365C18.428 6.22433 20.1766 5.5 22 5.5Z" fill="#2E5902"/>
<path d="M23.375 24.75H20.625C16.6136 24.75 12.7665 26.3435 9.93001 29.18C7.09352 32.0165 5.5 35.8636 5.5 39.875C5.5 40.2397 5.64487 40.5894 5.90273 40.8473C6.16059 41.1051 6.51033 41.25 6.875 41.25H37.125C37.4897 41.25 37.8394 41.1051 38.0973 40.8473C38.3551 40.5894 38.5 40.2397 38.5 39.875C38.5 35.8636 36.9065 32.0165 34.07 29.18C31.2335 26.3435 27.3864 24.75 23.375 24.75ZM8.3325 38.5C8.67061 35.4759 10.1111 32.6824 12.3787 30.6532C14.6463 28.624 17.582 27.5014 20.625 27.5H23.375C26.418 27.5014 29.3537 28.624 31.6213 30.6532C33.8889 32.6824 35.3294 35.4759 35.6675 38.5H8.3325Z" fill="#2E5902"/>
</svg>
