<svg width="24" height="24" viewBox="0 0 24 24" fill="none" xmlns="http://www.w3.org/2000/svg">
<path d="M17.4375 23.2968H18.1406V23.9999H17.4375V23.2968Z" fill="#2E5902"/>
<path d="M22.3592 1.33504V1.05468C22.3592 0.473154 21.8861 0 21.3046 0H6.53895C5.95742 0 5.48431 0.473154 5.48431 1.05468V1.27851H1.98046C1.39894 1.27851 0.925781 1.75167 0.925781 2.33319C0.925781 2.91472 1.39894 3.38788 1.98046 3.38788H4.22408L4.57559 4.091H5.51501L6.82479 18.4017C5.4545 18.5891 4.39508 19.7665 4.39508 21.1875C4.39508 22.7311 5.64509 23.9877 7.18596 23.9994V23.9999H7.20396C7.20518 23.9999 7.20635 24 7.20757 24C7.20879 24 7.20996 23.9999 7.21118 23.9999H16.7343V23.2968H9.06498C9.64998 22.781 10.0201 22.0269 10.0201 21.1875C10.0201 19.7458 8.92951 18.5547 7.53016 18.3941L6.22109 4.091H21.6294L20.2508 22.9196C20.2375 23.1024 20.1093 23.2968 19.8983 23.2968H18.8437V23.9999H19.8983C20.4561 23.9999 20.9091 23.5575 20.9521 22.9709L22.3381 4.04169C22.7643 3.90627 23.074 3.50685 23.074 3.03636V2.33324C23.074 1.87059 22.7745 1.47684 22.3592 1.33504ZM9.31694 21.1875C9.31694 22.3494 8.37264 23.2948 7.21118 23.2968H7.20396C6.0425 23.2948 5.0982 22.3494 5.0982 21.1875C5.0982 20.0244 6.04446 19.0781 7.20757 19.0781C8.37067 19.0781 9.31694 20.0244 9.31694 21.1875ZM22.3709 3.03632C22.3709 3.23019 22.2132 3.38788 22.0194 3.38788H5.01017L4.65866 2.68476H1.98046C1.78659 2.68476 1.6289 2.52707 1.6289 2.33319C1.6289 2.13932 1.78659 1.98163 1.98046 1.98163H7.59363V1.27851H6.18743V1.05468C6.18743 0.860809 6.34512 0.703122 6.53895 0.703122H21.3046C21.4984 0.703122 21.6561 0.860809 21.6561 1.05468V1.27851H8.2968V1.98163H22.0194C22.2132 1.98163 22.3709 2.13932 22.3709 2.33319V3.03632Z" fill="#2E5902"/>
<path d="M5.80078 21.1875C5.80078 21.9629 6.43163 22.5938 7.20703 22.5938C7.98244 22.5938 8.61329 21.9629 8.61329 21.1875C8.61329 20.4121 7.98244 19.7812 7.20703 19.7812C6.43163 19.7812 5.80078 20.4121 5.80078 21.1875ZM7.91016 21.1875C7.91016 21.5752 7.59474 21.8906 7.20703 21.8906C6.81933 21.8906 6.50391 21.5752 6.50391 21.1875C6.50391 20.7998 6.81933 20.4844 7.20703 20.4844C7.59474 20.4844 7.91016 20.7997 7.91016 21.1875Z" fill="#2E5902"/>
<path d="M20.0117 6.92871L20.063 6.2277L20.764 6.27902L20.7127 6.98004L20.0117 6.92871Z" fill="#2E5902"/>
<path d="M20.1123 5.52539L20.1636 4.82438L20.8646 4.8757L20.8133 5.57672L20.1123 5.52539Z" fill="#2E5902"/>
<path d="M14.2661 12.8315C14.1256 10.2424 11.9749 8.17932 9.35156 8.17932H9V10.0542C9 12.6498 11.0198 14.7825 13.5705 14.9633L13.5705 15.3031C13.5704 15.3195 13.5703 15.3357 13.5703 15.3521L13.5708 17.227H13.9223C16.636 17.227 18.8437 15.0192 18.8437 12.3056V10.4307H18.4922C16.6989 10.4307 15.1266 11.3946 14.2661 12.8315ZM9.70312 10.0542V8.89698C11.8652 9.07623 13.57 10.8932 13.5703 13.1009L13.5704 13.5701L11.8731 11.3071L11.3106 11.7289L13.1676 14.2049C11.2 13.8482 9.70312 12.1227 9.70312 10.0542ZM18.1406 12.3056C18.1406 14.3743 16.6436 16.0999 14.676 16.4564L16.5331 13.9803L15.9706 13.5584L14.2737 15.8209L14.2737 15.3068C14.2969 13.1198 15.9932 11.3264 18.1406 11.1483V12.3056Z" fill="#2E5902"/>
<path d="M16.3926 12.9957L16.8145 12.4332L17.377 12.8551L16.9551 13.4176L16.3926 12.9957Z" fill="#2E5902"/>
<path d="M10.4668 10.6039L11.0293 10.182L11.4512 10.7445L10.8887 11.1664L10.4668 10.6039Z" fill="#2E5902"/>
</svg>
