<svg width="54" height="41" viewBox="0 0 54 41" fill="none" xmlns="http://www.w3.org/2000/svg">
<g clip-path="url(#clip0)">
<path d="M40.3166 41C37.9638 41.0557 35.6315 40.5498 33.5129 39.5243C31.4673 38.5909 29.2453 38.1079 26.9971 38.1079C24.7489 38.1079 22.5269 38.5909 20.4813 39.5243C18.345 40.4968 16.0253 41 13.6783 41C11.3313 41 9.01153 40.4968 6.87523 39.5243C4.84888 38.5346 2.61387 38.0488 0.359821 38.1078C0.264002 38.1078 0.172091 38.0698 0.104337 38.002C0.0365823 37.9342 -0.00146484 37.8422 -0.00146484 37.7463C-0.00146484 37.6504 0.0365823 37.5585 0.104337 37.4907C0.172091 37.4229 0.264002 37.3848 0.359821 37.3848C2.71245 37.329 5.04449 37.8349 7.16282 38.8605C9.20827 39.7939 11.4302 40.277 13.6783 40.277C15.9264 40.277 18.1482 39.7939 20.1937 38.8605C22.3301 37.888 24.65 37.3848 26.9971 37.3848C29.3442 37.3848 31.664 37.888 33.8004 38.8605C35.8461 39.794 38.0683 40.277 40.3166 40.277C42.5649 40.277 44.7871 39.794 46.8328 38.8605C48.9516 37.8349 51.2841 37.3291 53.6372 37.3848C53.733 37.3848 53.825 37.4229 53.8927 37.4907C53.9605 37.5585 53.9985 37.6504 53.9985 37.7463C53.9985 37.8422 53.9605 37.9342 53.8927 38.002C53.825 38.0698 53.733 38.1078 53.6372 38.1078C51.3827 38.0487 49.1472 38.5346 47.1204 39.5243C45.0018 40.5501 42.6695 41.056 40.3166 41Z" fill="#2E5902"/>
<path d="M40.2606 11.0325C35.8175 5.03112 40.0012 2.89233 40.0012 2.89233C40.5883 3.88037 41.1069 4.90758 41.5533 5.96674C42.8459 8.86908 40.2606 11.0325 40.2606 11.0325Z" fill="#2E5902"/>
<path d="M41.3033 19.9261C42.3051 19.734 43.2658 19.3687 44.1423 18.8465C46.3555 17.438 45.5874 13.1648 45.5874 13.1648C45.5874 13.1648 44.3533 13.9956 42.9609 14.7837C40.4333 16.2125 41.3033 19.9261 41.3033 19.9261Z" fill="#2E5902"/>
<path d="M41.0338 14.6773C42.0355 14.4857 42.9961 14.1204 43.8721 13.5978C46.0868 12.1893 45.3173 7.91602 45.3173 7.91602C45.3173 7.91602 44.0831 8.74751 42.6907 9.53492C40.1639 10.9629 41.0338 14.6773 41.0338 14.6773Z" fill="#2E5902"/>
<path d="M40.1977 22.0279C39.1962 21.8351 38.2358 21.4696 37.3595 20.9476C35.1455 19.5391 35.9143 15.2659 35.9143 15.2659C35.9143 15.2659 37.1477 16.0974 38.5401 16.8841C41.0677 18.3128 40.1977 22.0279 40.1977 22.0279Z" fill="#2E5902"/>
<path d="M40.1977 16.3584C39.196 16.1663 38.2355 15.8008 37.3595 15.2782C35.1455 13.8704 35.9143 9.59644 35.9143 9.59644C35.9143 9.59644 37.1477 10.4287 38.5401 11.2153C41.0677 12.6441 40.1977 16.3584 40.1977 16.3584Z" fill="#2E5902"/>
<path d="M41.3033 30.8506C42.3052 30.6589 43.266 30.2936 44.1423 29.7711C46.3555 28.3626 45.5874 24.0894 45.5874 24.0894C45.5874 24.0894 44.3533 24.9209 42.9609 25.7083C40.4333 27.1363 41.3033 30.8506 41.3033 30.8506Z" fill="#2E5902"/>
<path d="M41.0338 25.6013C42.0354 25.4096 42.9959 25.0446 43.8721 24.5225C46.0868 23.1133 45.3173 18.8401 45.3173 18.8401C45.3173 18.8401 44.0831 19.6716 42.6907 20.459C40.1639 21.887 41.0338 25.6013 41.0338 25.6013Z" fill="#2E5902"/>
<path d="M40.1977 33.035C39.1961 32.8428 38.2357 32.4775 37.3595 31.9555C35.1455 30.5469 35.9143 26.2737 35.9143 26.2737C35.9143 26.2737 37.1477 27.1052 38.5401 27.8919C41.0677 29.3214 40.1977 33.035 40.1977 33.035Z" fill="#2E5902"/>
<path d="M40.1977 27.3662C39.1961 27.174 38.2357 26.8087 37.3595 26.2867C35.1455 24.8782 35.9143 20.6042 35.9143 20.6042C35.9143 20.6042 37.1477 21.4372 38.5401 22.2232C41.0677 23.6548 40.1977 27.3662 40.1977 27.3662Z" fill="#2E5902"/>
<path d="M41.4888 40.8144C41.4447 40.8144 41.401 40.8057 41.3602 40.7888C41.3195 40.7719 41.2824 40.7471 41.2512 40.7159C41.22 40.6847 41.1953 40.6476 41.1784 40.6068C41.1615 40.566 41.1528 40.5223 41.1528 40.4782V29.1826C41.1528 29.0935 41.1882 29.0079 41.2512 28.9449C41.3142 28.8818 41.3997 28.8464 41.4888 28.8464C41.5779 28.8464 41.6634 28.8818 41.7264 28.9449C41.7894 29.0079 41.8248 29.0935 41.8248 29.1826V40.4782C41.8246 40.5673 41.7892 40.6527 41.7262 40.7157C41.6632 40.7787 41.5779 40.8142 41.4888 40.8144Z" fill="#2E5902"/>
<path d="M9.91243 11.0325C5.46934 5.03112 9.65307 2.89233 9.65307 2.89233C10.2402 3.88037 10.7587 4.90758 11.2051 5.96674C12.4978 8.86908 9.91243 11.0325 9.91243 11.0325Z" fill="#2E5902"/>
<path d="M10.9552 19.9261C11.957 19.734 12.9177 19.3687 13.7941 18.8465C16.0074 17.438 15.2393 13.1648 15.2393 13.1648C15.2393 13.1648 14.0051 13.9956 12.6127 14.7837C10.0852 16.2125 10.9552 19.9261 10.9552 19.9261Z" fill="#2E5902"/>
<path d="M10.6857 14.6773C11.6874 14.4857 12.648 14.1204 13.524 13.5978C15.7387 12.1893 14.9691 7.91602 14.9691 7.91602C14.9691 7.91602 13.735 8.74751 12.3426 9.53492C9.81572 10.9629 10.6857 14.6773 10.6857 14.6773Z" fill="#2E5902"/>
<path d="M9.84956 22.0279C8.84805 21.8351 7.88768 21.4696 7.01131 20.9476C4.79735 19.5391 5.56616 15.2659 5.56616 15.2659C5.56616 15.2659 6.79957 16.0974 8.19197 16.8841C10.7195 18.3128 9.84956 22.0279 9.84956 22.0279Z" fill="#2E5902"/>
<path d="M9.84956 16.3584C8.84786 16.1663 7.88738 15.8008 7.01131 15.2782C4.79735 13.8704 5.56616 9.59644 5.56616 9.59644C5.56616 9.59644 6.79957 10.4287 8.19197 11.2153C10.7195 12.6441 9.84956 16.3584 9.84956 16.3584Z" fill="#2E5902"/>
<path d="M10.9552 30.8506C11.9571 30.6589 12.9178 30.2936 13.7941 29.7711C16.0074 28.3626 15.2393 24.0894 15.2393 24.0894C15.2393 24.0894 14.0051 24.9209 12.6127 25.7083C10.0852 27.1363 10.9552 30.8506 10.9552 30.8506Z" fill="#2E5902"/>
<path d="M10.6857 25.6013C11.6873 25.4096 12.6478 25.0446 13.524 24.5225C15.7387 23.1133 14.9691 18.8401 14.9691 18.8401C14.9691 18.8401 13.735 19.6716 12.3426 20.459C9.81572 21.887 10.6857 25.6013 10.6857 25.6013Z" fill="#2E5902"/>
<path d="M9.84956 33.035C8.848 32.8428 7.88758 32.4775 7.01131 31.9555C4.79735 30.5469 5.56616 26.2737 5.56616 26.2737C5.56616 26.2737 6.79957 27.1052 8.19197 27.8919C10.7195 29.3214 9.84956 33.035 9.84956 33.035Z" fill="#2E5902"/>
<path d="M9.84956 27.3662C8.848 27.174 7.88758 26.8087 7.01131 26.2867C4.79735 24.8782 5.56616 20.6042 5.56616 20.6042C5.56616 20.6042 6.79957 21.4372 8.19197 22.2232C10.7195 23.6548 9.84956 27.3662 9.84956 27.3662Z" fill="#2E5902"/>
<path d="M11.1407 40.8144C11.0515 40.8144 10.9661 40.779 10.9031 40.7159C10.8401 40.6529 10.8047 40.5673 10.8047 40.4782V29.1826C10.8047 29.0935 10.8401 29.0079 10.9031 28.9449C10.9661 28.8818 11.0515 28.8464 11.1407 28.8464C11.2298 28.8464 11.3152 28.8818 11.3782 28.9449C11.4413 29.0079 11.4767 29.0935 11.4767 29.1826V40.4782C11.4765 40.5673 11.441 40.6527 11.3781 40.7157C11.3151 40.7787 11.2297 40.8142 11.1407 40.8144Z" fill="#2E5902"/>
<path d="M25.0863 8.14013C20.6432 2.13879 24.8269 0 24.8269 0C25.414 0.988037 25.9325 2.01525 26.3789 3.07441C27.6716 5.97674 25.0863 8.14013 25.0863 8.14013Z" fill="#2E5902"/>
<path d="M26.129 17.0337C27.1308 16.8416 28.0915 16.4764 28.968 15.9542C31.1812 14.5457 30.4131 10.2725 30.4131 10.2725C30.4131 10.2725 29.179 11.1032 27.7866 11.8914C25.259 13.3201 26.129 17.0337 26.129 17.0337Z" fill="#2E5902"/>
<path d="M25.8595 11.7849C26.8612 11.5933 27.8218 11.228 28.6978 10.7054C30.9125 9.29693 30.1429 5.02368 30.1429 5.02368C30.1429 5.02368 28.9088 5.85518 27.5164 6.64259C24.9896 8.07062 25.8595 11.7849 25.8595 11.7849Z" fill="#2E5902"/>
<path d="M25.0234 19.1355C24.0219 18.9428 23.0615 18.5773 22.1851 18.0553C19.9712 16.6468 20.74 12.3735 20.74 12.3735C20.74 12.3735 21.9734 13.2051 23.3658 13.9917C25.8934 15.4205 25.0234 19.1355 25.0234 19.1355Z" fill="#2E5902"/>
<path d="M25.0234 13.4661C24.0217 13.274 23.0612 12.9084 22.1851 12.3859C19.9712 10.9781 20.74 6.7041 20.74 6.7041C20.74 6.7041 21.9734 7.53632 23.3658 8.323C25.8934 9.75176 25.0234 13.4661 25.0234 13.4661Z" fill="#2E5902"/>
<path d="M26.129 27.9583C27.1309 27.7665 28.0916 27.4012 28.968 26.8788C31.1812 25.4703 30.4131 21.197 30.4131 21.197C30.4131 21.197 29.179 22.0285 27.7866 22.8159C25.259 24.244 26.129 27.9583 26.129 27.9583Z" fill="#2E5902"/>
<path d="M25.8595 22.709C26.8611 22.5173 27.8216 22.1522 28.6978 21.6302C30.9125 20.221 30.1429 15.9478 30.1429 15.9478C30.1429 15.9478 28.9088 16.7793 27.5164 17.5667C24.9896 18.9947 25.8595 22.709 25.8595 22.709Z" fill="#2E5902"/>
<path d="M25.0234 30.1426C24.0218 29.9504 23.0614 29.5851 22.1851 29.0631C19.9712 27.6546 20.74 23.3813 20.74 23.3813C20.74 23.3813 21.9734 24.2129 23.3658 24.9996C25.8934 26.429 25.0234 30.1426 25.0234 30.1426Z" fill="#2E5902"/>
<path d="M25.0234 24.4739C24.0218 24.2817 23.0614 23.9164 22.1851 23.3944C19.9712 21.9859 20.74 17.7119 20.74 17.7119C20.74 17.7119 21.9734 18.5449 23.3658 19.3308C25.8934 20.7625 25.0234 24.4739 25.0234 24.4739Z" fill="#2E5902"/>
<path d="M26.3145 37.922C26.2704 37.922 26.2267 37.9134 26.1859 37.8965C26.1452 37.8796 26.1081 37.8548 26.0769 37.8236C26.0457 37.7924 26.021 37.7553 26.0041 37.7145C25.9872 37.6737 25.9785 37.63 25.9785 37.5858V26.2903C25.9785 26.2011 26.0139 26.1156 26.0769 26.0526C26.1399 25.9895 26.2254 25.9541 26.3145 25.9541C26.4036 25.9541 26.4891 25.9895 26.5521 26.0526C26.6151 26.1156 26.6505 26.2011 26.6505 26.2903V37.5858C26.6503 37.675 26.6149 37.7603 26.5519 37.8234C26.4889 37.8864 26.4035 37.9218 26.3145 37.922Z" fill="#2E5902"/>
</g>
<defs>
<clipPath id="clip0">
<rect width="54" height="41" fill="white"/>
</clipPath>
</defs>
</svg>
