<svg width="43" height="47" viewBox="0 0 43 47" fill="#2e5902" xmlns="http://www.w3.org/2000/svg">
<path d="M7.1665 35.25H10.7498V39.1666H32.2498V7.83329H10.7498V11.75H7.1665V5.87496C7.1665 5.35558 7.35527 4.85747 7.69127 4.49021C8.02727 4.12295 8.48299 3.91663 8.95817 3.91663H34.0415C34.5167 3.91663 34.9724 4.12295 35.3084 4.49021C35.6444 4.85747 35.8332 5.35558 35.8332 5.87496V41.125C35.8332 41.6443 35.6444 42.1425 35.3084 42.5097C34.9724 42.877 34.5167 43.0833 34.0415 43.0833H8.95817C8.48299 43.0833 8.02727 42.877 7.69127 42.5097C7.35527 42.1425 7.1665 41.6443 7.1665 41.125V35.25ZM10.7498 21.5416H23.2915V25.4583H10.7498V31.3333L1.7915 23.5L10.7498 15.6666V21.5416Z" fill="#2E5902"/>
</svg>
